<?xml version="1.0" standalone="no"?>
<!DOCTYPE svg PUBLIC "-//W3C//DTD SVG 20010904//EN"
 "http://www.w3.org/TR/2001/REC-SVG-20010904/DTD/svg10.dtd">
<svg version="1.0" xmlns="http://www.w3.org/2000/svg"
 width="2048.000000pt" height="2048.000000pt" viewBox="0 0 2048.000000 2048.000000"
 preserveAspectRatio="xMidYMid meet">

<g transform="translate(0.000000,2048.000000) scale(0.100000,-0.100000)"
fill="#000000" stroke="none">
<path d="M9296 14396 c-49 -18 -63 -29 -268 -198 -126 -105 -171 -148 -187
-180 -30 -64 -36 -117 -17 -180 15 -53 71 -122 285 -353 46 -49 170 -187 340
-375 47 -52 111 -122 141 -155 122 -132 237 -261 244 -273 6 -10 -340 -12
-1751 -12 -1130 0 -1790 -4 -1848 -10 -535 -61 -973 -235 -1386 -552 -125 -95
-387 -359 -477 -480 -254 -343 -397 -658 -477 -1053 -39 -194 -49 -298 -49
-515 1 -418 80 -763 258 -1125 142 -288 283 -484 510 -710 258 -256 492 -413
856 -573 238 -105 473 -168 720 -192 83 -8 1205 -10 4040 -7 3629 3 3935 4
4055 20 282 37 390 59 535 107 854 285 1493 949 1725 1795 115 421 122 881 19
1305 -115 470 -367 908 -718 1247 -413 399 -904 639 -1481 723 -128 18 -190
20 -743 20 -582 0 -604 -1 -645 -20 -67 -32 -113 -76 -144 -138 l-28 -57 0
-310 0 -310 28 -57 c30 -61 74 -105 140 -140 42 -23 46 -23 587 -29 511 -5
551 -7 643 -27 209 -46 387 -121 558 -235 132 -87 326 -281 412 -412 371 -564
353 -1281 -46 -1821 -75 -102 -250 -270 -352 -340 -232 -159 -435 -224 -791
-254 -92 -8 -1192 -10 -3854 -8 l-3725 4 -111 21 c-61 12 -173 42 -248 67
-213 70 -352 155 -526 323 -162 155 -279 327 -358 525 -155 390 -161 797 -16
1171 193 501 578 834 1109 960 90 21 94 21 1839 24 l1749 3 -84 -92 c-46 -51
-156 -172 -243 -268 -222 -244 -230 -252 -336 -370 -52 -58 -118 -130 -146
-160 -208 -224 -219 -241 -218 -340 1 -104 19 -128 220 -297 228 -192 238
-198 334 -198 127 1 130 4 446 385 171 207 1032 1243 1217 1465 154 185 187
257 187 408 0 102 -25 194 -73 264 -18 26 -123 156 -233 288 -110 132 -346
416 -524 630 -610 735 -772 930 -816 981 -24 29 -64 62 -88 74 -58 28 -139 35
-190 16z"/>
</g>
</svg>
